<svg data-v-423bf9ae="" xmlns="http://www.w3.org/2000/svg" viewBox="0 0 381.716391321386 189" class="iconAboveSlogan"><!----><!----><!----><g data-v-423bf9ae="" id="117abc21-e28b-437a-8287-5f3c23b86861" fill="#861F41" transform="matrix(5.597014904022217,0,0,5.597014904022217,-0.8955364227294922,63.541046142578125)"><path d="M0.16 14.94L0.16 14.94L1.48 14.51L1.48 14.51Q1.48 14.51 1.50 14.62L1.50 14.62L1.50 14.62Q1.52 14.72 1.58 14.89L1.58 14.89L1.58 14.89Q1.63 15.05 1.72 15.25L1.72 15.25L1.72 15.25Q1.81 15.46 1.99 15.66L1.99 15.66L1.99 15.66Q2.17 15.86 2.41 16.02L2.41 16.02L2.41 16.02Q2.94 16.40 3.73 16.40L3.73 16.40L3.73 16.40Q4.53 16.40 4.90 16.01L4.90 16.01L4.90 16.01Q5.27 15.62 5.27 15.08L5.27 15.08L5.27 15.08Q5.27 14.55 5.16 14.22L5.16 14.22L5.16 14.22Q5.05 13.88 4.78 13.64L4.78 13.64L4.78 13.64Q4.32 13.23 3.19 12.90L3.19 12.90L3.19 12.90Q1.20 12.32 0.64 11.10L0.64 11.10L0.64 11.10Q0.34 10.47 0.34 9.60L0.34 9.60L0.34 9.60Q0.34 8.88 0.85 8.19L0.85 8.19L0.85 8.19Q1.75 7.05 3.40 7.05L3.40 7.05L3.40 7.05Q4.70 7.05 5.54 7.83L5.54 7.83L5.54 7.83Q6.13 8.39 6.43 9.23L6.43 9.23L6.56 9.59L6.56 9.59Q6.62 9.75 6.64 9.80L6.64 9.80L5.30 10.27L5.30 10.27Q4.85 8.84 3.90 8.50L3.90 8.50L3.90 8.50Q3.66 8.42 3.40 8.42L3.40 8.42L3.40 8.42Q1.98 8.42 1.98 9.88L1.98 9.88L1.98 9.88Q1.98 10.55 2.37 10.91L2.37 10.91L2.37 10.91Q2.70 11.22 3.23 11.40L3.23 11.40L3.56 11.50L3.56 11.50Q3.84 11.60 3.87 11.61L3.87 11.61L4.17 11.71L4.17 11.71Q5.34 12.12 5.75 12.43L5.75 12.43L5.75 12.43Q6.35 12.90 6.54 13.29L6.54 13.29L6.54 13.29Q6.90 14.09 6.90 14.98L6.90 14.98L6.90 14.98Q6.90 15.67 6.51 16.39L6.51 16.39L6.51 16.39Q5.97 17.36 4.82 17.66L4.82 17.66L4.82 17.66Q4.38 17.77 3.85 17.77L3.85 17.77L3.85 17.77Q3.32 17.77 2.86 17.68L2.86 17.68L2.86 17.68Q2.40 17.58 2.06 17.42L2.06 17.42L2.06 17.42Q1.73 17.25 1.45 17.04L1.45 17.04L1.45 17.04Q1.17 16.83 0.98 16.59L0.98 16.59L0.98 16.59Q0.79 16.36 0.64 16.12L0.64 16.12L0.64 16.12Q0.50 15.89 0.41 15.67L0.41 15.67L0.41 15.67Q0.33 15.46 0.27 15.30L0.27 15.30L0.27 15.30Q0.22 15.13 0.19 15.04L0.19 15.04L0.19 15.04Q0.17 14.94 0.16 14.94ZM7.92 15.79L7.92 15.79L7.92 10.38L9.39 10.38L9.39 15.41L9.39 15.41Q9.39 15.90 9.68 16.19L9.68 16.19L9.68 16.19Q9.98 16.48 10.39 16.48L10.39 16.48L10.39 16.48Q10.79 16.48 11.20 16.24L11.20 16.24L11.20 16.24Q11.61 16.00 11.81 15.76L11.81 15.76L11.81 10.38L13.27 10.38L13.27 17.60L11.81 17.60L11.81 16.83L11.81 16.83Q10.92 17.72 9.96 17.72L9.96 17.72L9.96 17.72Q9.10 17.72 8.53 17.27L8.53 17.27L8.53 17.27Q7.92 16.78 7.92 15.79ZM16.15 10.38L16.15 11.15L16.15 11.15Q17.04 10.26 18.13 10.26L18.13 10.26L18.13 10.26Q18.77 10.26 19.26 10.51L19.26 10.51L19.26 10.51Q19.76 10.77 19.99 11.28L19.99 11.28L19.99 11.28Q21.01 10.26 22.01 10.26L22.01 10.26L22.01 10.26Q22.88 10.26 23.51 10.71L23.51 10.71L23.51 10.71Q24.19 11.20 24.19 12.19L24.19 12.19L24.19 17.60L22.72 17.60L22.72 12.57L22.72 12.57Q22.72 12.09 22.37 11.79L22.37 11.79L22.37 11.79Q22.01 11.50 21.59 11.50L21.59 11.50L21.59 11.50Q21.17 11.50 20.77 11.74L20.77 11.74L20.77 11.74Q20.36 11.98 20.17 12.22L20.17 12.22L20.17 17.60L18.70 17.60L18.70 12.57L18.70 12.57Q18.70 12.08 18.41 11.79L18.41 11.79L18.41 11.79Q18.11 11.50 17.69 11.50L17.69 11.50L17.69 11.50Q17.28 11.50 16.81 11.75L16.81 11.75L16.81 11.75Q16.34 12.00 16.15 12.22L16.15 12.22L16.15 17.60L14.69 17.60L14.69 10.38L16.15 10.38ZM27.06 10.38L27.06 11.15L27.06 11.15Q27.95 10.26 29.03 10.26L29.03 10.26L29.03 10.26Q29.67 10.26 30.17 10.51L30.17 10.51L30.17 10.51Q30.66 10.77 30.89 11.28L30.89 11.28L30.89 11.28Q31.91 10.26 32.92 10.26L32.92 10.26L32.92 10.26Q33.78 10.26 34.41 10.71L34.41 10.71L34.41 10.71Q35.09 11.20 35.09 12.19L35.09 12.19L35.09 17.60L33.63 17.60L33.63 12.57L33.63 12.57Q33.63 12.09 33.27 11.79L33.27 11.79L33.27 11.79Q32.92 11.50 32.49 11.50L32.49 11.50L32.49 11.50Q32.07 11.50 31.67 11.74L31.67 11.74L31.67 11.74Q31.27 11.98 31.07 12.22L31.07 12.22L31.07 17.60L29.61 17.60L29.61 12.57L29.61 12.57Q29.61 12.08 29.31 11.79L29.31 11.79L29.31 11.79Q29.01 11.50 28.60 11.50L28.60 11.50L28.60 11.50Q28.18 11.50 27.71 11.75L27.71 11.75L27.71 11.75Q27.24 12.00 27.06 12.22L27.06 12.22L27.06 17.60L25.59 17.60L25.59 10.38L27.06 10.38ZM37.93 17.60L36.47 17.60L36.47 10.38L37.93 10.38L37.93 17.60ZM38.03 9.75L36.37 9.75L36.37 8.09L38.03 8.09L38.03 9.75ZM39.90 11.62L38.83 11.62L38.83 10.38L39.90 10.38L39.90 7.75L41.36 7.75L41.36 10.38L42.88 10.38L42.88 11.62L41.36 11.62L41.36 15.49L41.36 15.49Q41.36 16.07 41.57 16.29L41.57 16.29L41.57 16.29Q41.78 16.50 42.27 16.50L42.27 16.50L42.27 16.50Q42.47 16.50 42.67 16.47L42.67 16.47L42.67 16.47Q42.88 16.45 42.88 16.44L42.88 16.44L42.88 17.47L42.88 17.47Q42.51 17.64 42.30 17.69L42.30 17.69L42.30 17.69Q42.10 17.74 41.81 17.74L41.81 17.74L41.81 17.74Q41.52 17.74 41.38 17.73L41.38 17.73L41.38 17.73Q41.24 17.73 41.04 17.68L41.04 17.68L41.04 17.68Q40.84 17.64 40.69 17.57L40.69 17.57L40.69 17.57Q40.54 17.50 40.39 17.36L40.39 17.36L40.39 17.36Q40.23 17.23 40.13 17.04L40.13 17.04L40.13 17.04Q39.90 16.60 39.90 15.90L39.90 15.90L39.90 11.62ZM46.95 13.70L46.95 13.70L46.95 13.70Q46.84 13.06 46.84 12.40L46.84 12.40L46.84 12.40Q46.84 11.74 46.94 11.11L46.94 11.11L46.94 11.11Q47.04 10.47 47.25 9.87L47.25 9.87L47.25 9.87Q47.45 9.26 47.77 8.75L47.77 8.75L47.77 8.75Q48.10 8.24 48.51 7.86L48.51 7.86L48.51 7.86Q49.40 7.05 50.72 7.05L50.72 7.05L50.72 7.05Q52.40 7.05 53.37 8.72L53.37 8.72L53.37 8.72Q53.84 9.54 54.00 10.40L54.00 10.40L54.00 10.40L52.58 10.79L52.58 10.79Q52.47 10.06 52.32 9.72L52.32 9.72L52.32 9.72Q52.17 9.38 52.02 9.15L52.02 9.15L52.02 9.15Q51.87 8.92 51.69 8.77L51.69 8.77L51.69 8.77Q51.27 8.42 50.73 8.42L50.73 8.42L50.73 8.42Q50.20 8.42 49.81 8.66L49.81 8.66L49.81 8.66Q49.43 8.91 49.18 9.30L49.18 9.30L49.18 9.30Q48.94 9.69 48.77 10.22L48.77 10.22L48.77 10.22Q48.47 11.19 48.47 12.41L48.47 12.41L48.47 12.41Q48.47 15.63 50.00 16.26L50.00 16.26L50.00 16.26Q50.33 16.40 50.70 16.40L50.70 16.40L50.70 16.40Q51.07 16.40 51.36 16.30L51.36 16.30L51.36 16.30Q51.65 16.21 51.85 16.05L51.85 16.05L51.85 16.05Q52.05 15.90 52.20 15.69L52.20 15.69L52.20 15.69Q52.36 15.48 52.45 15.26L52.45 15.26L52.45 15.26Q52.54 15.05 52.60 14.82L52.60 14.82L52.60 14.82Q52.70 14.42 52.70 14.08L52.70 14.08L54.22 14.29L54.22 14.29Q53.92 15.61 53.15 16.57L53.15 16.57L53.15 16.57Q52.18 17.77 50.71 17.77L50.71 17.77L50.71 17.77Q48.90 17.77 47.80 16.06L47.80 16.06L47.80 16.06Q47.18 15.09 46.95 13.70ZM57.14 8.61L54.35 8.61L54.35 7.24L61.57 7.24L61.57 8.61L58.78 8.61L58.78 17.60L57.14 17.60L57.14 8.61ZM64.07 17.60L62.43 17.60L62.43 7.24L68.36 7.24L68.36 8.61L64.07 8.61L64.07 11.48L67.05 11.48L67.05 12.86L64.07 12.86L64.07 17.60Z"></path></g><!----><g data-v-423bf9ae="" id="211741e0-e9dd-41ca-9b4c-1afa7450ceb3" transform="matrix(1.140915870666504,0,0,1.140915870666504,133.95420837402344,-9.505711204838008e-7)" stroke="none" fill="#E87722"><path d="M87.499 53.748l6.302 6.301L100 53.851 69.706 23.558l-7.86 7.86-12.299-12.3v-8.994h12.871V0H47.517v10.125h.006v8.994L0 66.641l9.432 9.432 8.519-8.52 7.239 7.238 11.562-11.562 15.656 15.655 13.438-13.437 5.92 5.921 5.814-5.815 10.287 10.29 9.201-9.202-11.231-11.232 1.662-1.661zM69.706 26.435l.002.002V39.28l-6.424-6.423 6.422-6.422zM49.552 2.034h10.835V8.09H49.552V2.034zM25.19 71.928l-7.239-7.237-8.519 8.52-6.571-6.57 45.674-45.673V72.15L36.753 60.367 25.19 71.928z"></path></g><!----><g data-v-423bf9ae="" id="608970d2-849f-4015-99c8-46e5fe2a985c" fill="#75787b" transform="matrix(1.2837419509887695,0,0,1.2837419509887695,47.65773010253906,198.05792236328125)"><path d="M10.43 4.44C10.61 4.42 10.71 4.34 10.71 4.19L10.71 3.92L9.53 3.92L8.81 3.92L7.63 3.92L7.63 4.19C7.63 4.34 7.73 4.42 7.91 4.44L8.04 4.44C8.11 4.44 8.22 4.45 8.36 4.45C8.50 4.45 8.64 4.47 8.81 4.47L8.81 8.53L2.60 8.53L2.60 4.47C2.77 4.47 2.93 4.45 3.07 4.45C3.21 4.45 3.30 4.44 3.37 4.44L3.51 4.44C3.70 4.42 3.78 4.34 3.78 4.19L3.78 3.92L2.60 3.92L1.89 3.92L0.70 3.92L0.70 4.19C0.70 4.34 0.80 4.42 0.98 4.44L1.12 4.44C1.19 4.44 1.29 4.45 1.43 4.45C1.57 4.45 1.72 4.47 1.89 4.47L1.89 13.26C1.72 13.26 1.57 13.27 1.43 13.27C1.29 13.27 1.19 13.29 1.12 13.29L0.98 13.29C0.80 13.30 0.70 13.38 0.70 13.54L0.70 13.82L1.89 13.82L2.60 13.82L3.78 13.82L3.78 13.54C3.78 13.38 3.70 13.30 3.51 13.29L3.37 13.29C3.30 13.29 3.21 13.27 3.07 13.27C2.93 13.27 2.77 13.26 2.60 13.26L2.60 9.07L8.81 9.07L8.81 13.26C8.64 13.26 8.50 13.27 8.36 13.27C8.22 13.27 8.11 13.29 8.04 13.29L7.91 13.29C7.73 13.30 7.63 13.38 7.63 13.54L7.63 13.82L8.81 13.82L9.53 13.82L10.71 13.82L10.71 13.54C10.71 13.38 10.61 13.30 10.43 13.29L10.30 13.29C10.23 13.29 10.12 13.27 9.98 13.27C9.84 13.27 9.70 13.26 9.53 13.26L9.53 4.47C9.70 4.47 9.84 4.45 9.98 4.45C10.12 4.45 10.23 4.44 10.30 4.44ZM28.35 13.22L27.89 13.17L24.11 3.91L23.39 3.91L19.60 13.17L19.15 13.22C18.97 13.23 18.89 13.33 18.89 13.50L18.89 13.82L19.33 13.82L19.63 13.82L19.88 13.82L19.98 13.82L21.29 13.82L21.29 13.50C21.29 13.31 21.18 13.23 20.97 13.22C20.96 13.22 20.93 13.20 20.89 13.20C20.85 13.20 20.79 13.19 20.69 13.19C20.59 13.19 20.47 13.19 20.33 13.17L21.31 10.75L21.38 10.57L26.11 10.57L26.18 10.75L27.16 13.17C27.02 13.19 26.91 13.19 26.81 13.19C26.71 13.19 26.64 13.20 26.60 13.20C26.56 13.20 26.53 13.22 26.52 13.22C26.31 13.23 26.19 13.31 26.19 13.50L26.19 13.82L27.51 13.82L27.61 13.82L27.87 13.82L28.15 13.82L28.62 13.82L28.62 13.50C28.62 13.33 28.53 13.23 28.35 13.22ZM23.55 5.22C23.58 5.14 23.62 5.04 23.65 4.94C23.67 4.84 23.72 4.75 23.74 4.63C23.77 4.75 23.81 4.84 23.84 4.94C23.87 5.04 23.91 5.12 23.94 5.21L25.90 10.04L21.60 10.04ZM43.99 12.21C43.96 12.18 43.92 12.15 43.88 12.15C43.85 12.15 43.83 12.15 43.81 12.17C43.79 12.18 43.76 12.21 43.74 12.22C43.54 12.40 43.33 12.56 43.13 12.70C42.94 12.84 42.73 12.94 42.49 13.03C42.25 13.13 42 13.20 41.72 13.24C41.44 13.29 41.13 13.31 40.78 13.31C40.22 13.31 39.68 13.22 39.20 13.01C38.71 12.81 38.30 12.52 37.95 12.14C37.60 11.76 37.31 11.28 37.11 10.74C36.92 10.19 36.82 9.56 36.82 8.86C36.82 8.18 36.92 7.56 37.11 7.01C37.32 6.47 37.60 6.01 37.97 5.61C38.33 5.24 38.77 4.94 39.27 4.73C39.77 4.52 40.32 4.42 40.92 4.42C41.82 4.42 42.64 4.56 43.37 4.89C43.41 5.78 43.46 6.30 43.46 6.41C43.47 6.64 43.55 6.75 43.75 6.75L44.09 6.75L44.09 4.51C42.91 4.03 41.85 3.81 40.92 3.81C40.21 3.81 39.56 3.92 38.96 4.17C38.37 4.42 37.84 4.76 37.42 5.21C36.99 5.66 36.67 6.19 36.43 6.80C36.19 7.42 36.08 8.11 36.08 8.86C36.08 9.63 36.20 10.32 36.43 10.95C36.65 11.58 36.97 12.10 37.38 12.54C37.79 12.99 38.28 13.33 38.85 13.57C39.42 13.80 40.04 13.93 40.73 13.93C41.13 13.93 41.51 13.90 41.86 13.83C42.20 13.76 42.52 13.66 42.81 13.54C43.09 13.41 43.36 13.26 43.60 13.09C43.83 12.91 44.06 12.73 44.27 12.50ZM60.77 13.29L60.69 13.29L60.51 13.29C60.42 13.29 60.33 13.27 60.23 13.27L56.20 9.06C56.11 8.96 56.04 8.89 55.96 8.83C55.87 8.78 55.79 8.74 55.69 8.71C55.78 8.68 55.85 8.64 55.92 8.58C55.99 8.53 56.07 8.46 56.15 8.36L59.95 4.45L60.21 4.45C60.30 4.45 60.35 4.44 60.40 4.44L60.48 4.44C60.66 4.42 60.76 4.34 60.76 4.19L60.76 3.91L59.78 3.91L59.65 3.91L57.85 3.91L57.85 4.19C57.85 4.34 57.95 4.42 58.13 4.44L58.30 4.44C58.39 4.44 58.52 4.45 58.69 4.45L59.14 4.45L55.47 8.22C55.41 8.27 55.36 8.33 55.31 8.36C55.27 8.39 55.22 8.40 55.16 8.43C55.10 8.44 55.06 8.47 54.99 8.47C54.92 8.48 54.84 8.48 54.75 8.48L54.17 8.48L54.17 4.45C54.33 4.45 54.49 4.44 54.63 4.44C54.77 4.44 54.87 4.42 54.94 4.42L55.08 4.42C55.26 4.41 55.34 4.33 55.34 4.17L55.34 3.91L54.17 3.91L53.45 3.91L52.28 3.91L52.28 4.17C52.28 4.33 52.37 4.41 52.56 4.42L52.68 4.42C52.75 4.42 52.86 4.44 53.00 4.44C53.14 4.44 53.28 4.45 53.45 4.45L53.45 13.26C53.28 13.26 53.14 13.27 53.00 13.27C52.86 13.27 52.75 13.29 52.68 13.29L52.56 13.29C52.37 13.30 52.28 13.38 52.28 13.54L52.28 13.82L53.45 13.82L54.17 13.82L55.34 13.82L55.34 13.54C55.34 13.38 55.26 13.30 55.08 13.29L54.94 13.29C54.87 13.29 54.77 13.27 54.63 13.27C54.49 13.27 54.33 13.26 54.17 13.26L54.17 9.04L54.81 9.04C54.92 9.04 55.02 9.04 55.09 9.06C55.16 9.07 55.22 9.09 55.27 9.11C55.33 9.14 55.38 9.17 55.43 9.21C55.47 9.25 55.51 9.28 55.57 9.34L59.42 13.27C59.28 13.27 59.11 13.29 58.94 13.29L58.53 13.29L58.35 13.29C58.17 13.30 58.07 13.38 58.07 13.54L58.07 13.82L59.95 13.82L60.00 13.82L60.17 13.82L60.76 13.82L61.05 13.82L61.05 13.54C61.05 13.38 60.96 13.30 60.77 13.29ZM87.22 3.92L87.02 3.92L79.73 3.92L79.52 3.92L79.42 3.92L79.42 5.96L79.77 5.96C79.97 5.96 80.05 5.85 80.07 5.63C80.07 5.53 80.09 5.17 80.12 4.52L83.02 4.52L83.02 13.26C82.85 13.26 82.71 13.27 82.57 13.27C82.43 13.27 82.32 13.29 82.25 13.29L82.12 13.29C81.94 13.30 81.84 13.38 81.84 13.54L81.84 13.82L83.02 13.82L83.73 13.82L84.92 13.82L84.92 13.54C84.92 13.38 84.83 13.30 84.64 13.29L84.50 13.29C84.43 13.29 84.34 13.27 84.20 13.27C84.06 13.27 83.90 13.26 83.73 13.26L83.73 4.52L86.62 4.52C86.66 5.24 86.67 5.60 86.67 5.63C86.69 5.85 86.79 5.96 86.98 5.96L87.32 5.96L87.32 3.92ZM104.61 8.86C104.61 8.11 104.48 7.41 104.26 6.79C104.03 6.17 103.71 5.64 103.29 5.19C102.87 4.75 102.38 4.40 101.81 4.16C101.23 3.92 100.58 3.79 99.88 3.79C99.18 3.79 98.55 3.92 97.97 4.16C97.40 4.40 96.89 4.75 96.47 5.19C96.05 5.64 95.73 6.17 95.51 6.79C95.28 7.41 95.16 8.11 95.16 8.86C95.16 9.63 95.28 10.33 95.51 10.95C95.73 11.56 96.05 12.10 96.47 12.54C96.89 12.99 97.40 13.33 97.97 13.57C98.55 13.80 99.18 13.93 99.88 13.93C100.58 13.93 101.23 13.80 101.81 13.57C102.38 13.33 102.87 12.99 103.29 12.54C103.71 12.10 104.03 11.56 104.26 10.95C104.48 10.33 104.61 9.63 104.61 8.86ZM103.85 8.86C103.85 9.56 103.77 10.18 103.57 10.72C103.38 11.27 103.11 11.75 102.76 12.12C102.41 12.50 101.99 12.81 101.50 13.01C101.01 13.20 100.48 13.30 99.88 13.30C99.29 13.30 98.76 13.20 98.27 13.01C97.78 12.81 97.36 12.50 97.01 12.12C96.66 11.75 96.38 11.27 96.18 10.72C95.98 10.18 95.90 9.56 95.90 8.86C95.90 8.18 95.98 7.55 96.18 7.00C96.38 6.45 96.66 5.98 97.01 5.60C97.36 5.22 97.78 4.91 98.27 4.72C98.76 4.52 99.29 4.41 99.88 4.41C100.48 4.41 101.01 4.52 101.50 4.72C101.99 4.91 102.41 5.22 102.76 5.60C103.11 5.98 103.38 6.45 103.57 7.00C103.77 7.55 103.85 8.18 103.85 8.86ZM130.77 3.92L130.58 3.92L123.28 3.92L123.07 3.92L122.98 3.92L122.98 5.96L123.33 5.96C123.52 5.96 123.61 5.85 123.62 5.63C123.62 5.53 123.65 5.17 123.68 4.52L126.57 4.52L126.57 13.26C126.41 13.26 126.27 13.27 126.13 13.27C125.99 13.27 125.87 13.29 125.80 13.29L125.68 13.29C125.50 13.30 125.40 13.38 125.40 13.54L125.40 13.82L126.57 13.82L127.29 13.82L128.48 13.82L128.48 13.54C128.48 13.38 128.38 13.30 128.20 13.29L128.06 13.29C127.99 13.29 127.89 13.27 127.75 13.27C127.61 13.27 127.46 13.26 127.29 13.26L127.29 4.52L130.17 4.52C130.21 5.24 130.23 5.60 130.23 5.63C130.24 5.85 130.34 5.96 130.54 5.96L130.87 5.96L130.87 3.92ZM148.71 4.44C148.89 4.42 148.99 4.34 148.99 4.19L148.99 3.92L147.81 3.92L147.08 3.92L145.91 3.92L145.91 4.19C145.91 4.34 146.01 4.42 146.19 4.44L146.31 4.44C146.38 4.44 146.50 4.45 146.64 4.45C146.78 4.45 146.92 4.47 147.08 4.47L147.08 8.53L140.88 8.53L140.88 4.47C141.05 4.47 141.20 4.45 141.34 4.45C141.48 4.45 141.58 4.44 141.65 4.44L141.79 4.44C141.97 4.42 142.06 4.34 142.06 4.19L142.06 3.92L140.88 3.92L140.17 3.92L138.98 3.92L138.98 4.19C138.98 4.34 139.08 4.42 139.26 4.44L139.40 4.44C139.47 4.44 139.57 4.45 139.71 4.45C139.85 4.45 140 4.47 140.17 4.47L140.17 13.26C140 13.26 139.85 13.27 139.71 13.27C139.57 13.27 139.47 13.29 139.40 13.29L139.26 13.29C139.08 13.30 138.98 13.38 138.98 13.54L138.98 13.82L140.17 13.82L140.88 13.82L142.06 13.82L142.06 13.54C142.06 13.38 141.97 13.30 141.79 13.29L141.65 13.29C141.58 13.29 141.48 13.27 141.34 13.27C141.20 13.27 141.05 13.26 140.88 13.26L140.88 9.07L147.08 9.07L147.08 13.26C146.92 13.26 146.78 13.27 146.64 13.27C146.50 13.27 146.38 13.29 146.31 13.29L146.19 13.29C146.01 13.30 145.91 13.38 145.91 13.54L145.91 13.82L147.08 13.82L147.81 13.82L148.99 13.82L148.99 13.54C148.99 13.38 148.89 13.30 148.71 13.29L148.58 13.29C148.51 13.29 148.40 13.27 148.26 13.27C148.12 13.27 147.98 13.26 147.81 13.26L147.81 4.47C147.98 4.47 148.12 4.45 148.26 4.45C148.40 4.45 148.51 4.44 148.58 4.44ZM158.52 3.92L157.33 3.92L157.33 4.19C157.33 4.34 157.43 4.42 157.61 4.44L157.75 4.44C157.82 4.44 157.92 4.45 158.06 4.45C158.20 4.45 158.35 4.47 158.52 4.47L158.52 13.26C158.35 13.26 158.20 13.27 158.06 13.27C157.92 13.27 157.82 13.29 157.75 13.29L157.61 13.29C157.43 13.30 157.35 13.38 157.35 13.54L157.35 13.82L158.52 13.82L164.46 13.82L164.46 13.22L164.46 11.76L164.11 11.76C163.91 11.76 163.83 11.89 163.81 12.11C163.81 12.14 163.80 12.19 163.80 12.29C163.80 12.39 163.80 12.53 163.79 12.74C163.77 12.95 163.76 13.09 163.76 13.22L159.24 13.22L159.24 9.09L163.18 9.09L163.18 8.51L159.24 8.51L159.24 4.51L163.76 4.51C163.79 5.12 163.81 5.50 163.81 5.63C163.83 5.85 163.91 5.96 164.11 5.96L164.46 5.96L164.46 4.51L164.46 3.92ZM190.93 3.92L190.74 3.92L183.44 3.92L183.23 3.92L183.13 3.92L183.13 5.96L183.48 5.96C183.68 5.96 183.76 5.85 183.78 5.63C183.78 5.53 183.81 5.17 183.83 4.52L186.73 4.52L186.73 13.26C186.56 13.26 186.42 13.27 186.28 13.27C186.14 13.27 186.03 13.29 185.96 13.29L185.84 13.29C185.65 13.30 185.56 13.38 185.56 13.54L185.56 13.82L186.73 13.82L187.45 13.82L188.64 13.82L188.64 13.54C188.64 13.38 188.54 13.30 188.36 13.29L188.22 13.29C188.15 13.29 188.05 13.27 187.91 13.27C187.77 13.27 187.61 13.26 187.45 13.26L187.45 4.52L190.33 4.52C190.37 5.24 190.39 5.60 190.39 5.63C190.40 5.85 190.50 5.96 190.69 5.96L191.03 5.96L191.03 3.92ZM208.32 8.86C208.32 8.11 208.19 7.41 207.97 6.79C207.75 6.17 207.42 5.64 207.00 5.19C206.58 4.75 206.09 4.40 205.52 4.16C204.95 3.92 204.29 3.79 203.59 3.79C202.89 3.79 202.26 3.92 201.68 4.16C201.11 4.40 200.61 4.75 200.19 5.19C199.77 5.64 199.44 6.17 199.22 6.79C199.00 7.41 198.87 8.11 198.87 8.86C198.87 9.63 199.00 10.33 199.22 10.95C199.44 11.56 199.77 12.10 200.19 12.54C200.61 12.99 201.11 13.33 201.68 13.57C202.26 13.80 202.89 13.93 203.59 13.93C204.29 13.93 204.95 13.80 205.52 13.57C206.09 13.33 206.58 12.99 207.00 12.54C207.42 12.10 207.75 11.56 207.97 10.95C208.19 10.33 208.32 9.63 208.32 8.86ZM207.56 8.86C207.56 9.56 207.48 10.18 207.28 10.72C207.09 11.27 206.82 11.75 206.47 12.12C206.12 12.50 205.70 12.81 205.21 13.01C204.72 13.20 204.19 13.30 203.59 13.30C203 13.30 202.47 13.20 201.98 13.01C201.49 12.81 201.07 12.50 200.72 12.12C200.37 11.75 200.09 11.27 199.89 10.72C199.70 10.18 199.61 9.56 199.61 8.86C199.61 8.18 199.70 7.55 199.89 7.00C200.09 6.45 200.37 5.98 200.72 5.60C201.07 5.22 201.49 4.91 201.98 4.72C202.47 4.52 203 4.41 203.59 4.41C204.19 4.41 204.72 4.52 205.21 4.72C205.70 4.91 206.12 5.22 206.47 5.60C206.82 5.98 207.09 6.45 207.28 7.00C207.48 7.55 207.56 8.18 207.56 8.86ZM222.82 4.68C222.24 4.17 221.35 3.92 220.19 3.92L217.78 3.92L216.59 3.92L216.59 4.19C216.59 4.34 216.69 4.42 216.87 4.44L217.01 4.44C217.08 4.44 217.18 4.45 217.32 4.45C217.46 4.45 217.62 4.47 217.78 4.47L217.78 13.26C217.62 13.26 217.46 13.27 217.32 13.27C217.18 13.27 217.08 13.29 217.01 13.29L216.87 13.29C216.69 13.30 216.59 13.38 216.59 13.54L216.59 13.82L217.78 13.82L218.50 13.82L219.67 13.82L219.67 13.54C219.67 13.38 219.58 13.30 219.39 13.29L219.27 13.29C219.20 13.29 219.09 13.27 218.95 13.27C218.81 13.27 218.67 13.26 218.50 13.26L218.50 9.83L220.19 9.83C220.74 9.83 221.23 9.74 221.66 9.60C222.10 9.45 222.46 9.25 222.77 8.99C223.08 8.72 223.31 8.41 223.47 8.05C223.64 7.69 223.71 7.29 223.71 6.86C223.71 5.92 223.41 5.18 222.82 4.68ZM222.80 7.81C222.67 8.11 222.49 8.36 222.25 8.57C222.01 8.78 221.72 8.95 221.37 9.07C221.02 9.20 220.63 9.25 220.19 9.25L218.50 9.25L218.50 4.48L220.19 4.48C221.12 4.48 221.82 4.69 222.29 5.10C222.75 5.50 222.99 6.09 222.99 6.85C222.99 7.20 222.92 7.52 222.80 7.81Z"></path></g></svg>