<svg data-v-fde0c5aa="" xmlns="http://www.w3.org/2000/svg" viewBox="0 0 300 300" class="font"><!----><defs data-v-fde0c5aa=""><!----></defs><rect data-v-fde0c5aa="" fill="#FFFFFF" x="0" y="0" width="300px" height="300px" class="logo-background-square"></rect><defs data-v-fde0c5aa=""><!----></defs><g data-v-fde0c5aa="" id="2dd91bb8-8fe4-42a4-b979-43a4ec8d7703" fill="#861F41" transform="matrix(3.225806713104248,0,0,3.225806713104248,39.483870956183,109.96773909818762)"><path d="M0.16 14.94L0.16 14.94L1.48 14.51L1.48 14.51Q1.48 14.51 1.50 14.62L1.50 14.62L1.50 14.62Q1.52 14.72 1.58 14.89L1.58 14.89L1.58 14.89Q1.63 15.05 1.72 15.25L1.72 15.25L1.72 15.25Q1.81 15.46 1.99 15.66L1.99 15.66L1.99 15.66Q2.17 15.86 2.41 16.02L2.41 16.02L2.41 16.02Q2.94 16.40 3.73 16.40L3.73 16.40L3.73 16.40Q4.53 16.40 4.90 16.01L4.90 16.01L4.90 16.01Q5.27 15.62 5.27 15.08L5.27 15.08L5.27 15.08Q5.27 14.55 5.16 14.22L5.16 14.22L5.16 14.22Q5.05 13.88 4.78 13.64L4.78 13.64L4.78 13.64Q4.32 13.23 3.19 12.90L3.19 12.90L3.19 12.90Q1.20 12.32 0.64 11.10L0.64 11.10L0.64 11.10Q0.34 10.47 0.34 9.60L0.34 9.60L0.34 9.60Q0.34 8.88 0.85 8.19L0.85 8.19L0.85 8.19Q1.75 7.05 3.40 7.05L3.40 7.05L3.40 7.05Q4.70 7.05 5.54 7.83L5.54 7.83L5.54 7.83Q6.13 8.39 6.43 9.23L6.43 9.23L6.56 9.59L6.56 9.59Q6.62 9.75 6.64 9.80L6.64 9.80L5.30 10.27L5.30 10.27Q4.85 8.84 3.90 8.50L3.90 8.50L3.90 8.50Q3.66 8.42 3.40 8.42L3.40 8.42L3.40 8.42Q1.98 8.42 1.98 9.88L1.98 9.88L1.98 9.88Q1.98 10.55 2.37 10.91L2.37 10.91L2.37 10.91Q2.70 11.22 3.23 11.40L3.23 11.40L3.56 11.50L3.56 11.50Q3.84 11.60 3.87 11.61L3.87 11.61L4.17 11.71L4.17 11.71Q5.34 12.12 5.75 12.43L5.75 12.43L5.75 12.43Q6.35 12.90 6.54 13.29L6.54 13.29L6.54 13.29Q6.90 14.09 6.90 14.98L6.90 14.98L6.90 14.98Q6.90 15.67 6.51 16.39L6.51 16.39L6.51 16.39Q5.97 17.36 4.82 17.66L4.82 17.66L4.82 17.66Q4.38 17.77 3.85 17.77L3.85 17.77L3.85 17.77Q3.32 17.77 2.86 17.68L2.86 17.68L2.86 17.68Q2.40 17.58 2.06 17.42L2.06 17.42L2.06 17.42Q1.73 17.25 1.45 17.04L1.45 17.04L1.45 17.04Q1.17 16.83 0.98 16.59L0.98 16.59L0.98 16.59Q0.79 16.36 0.64 16.12L0.64 16.12L0.64 16.12Q0.50 15.89 0.41 15.67L0.41 15.67L0.41 15.67Q0.33 15.46 0.27 15.30L0.27 15.30L0.27 15.30Q0.22 15.13 0.19 15.04L0.19 15.04L0.19 15.04Q0.17 14.94 0.16 14.94ZM7.92 15.79L7.92 15.79L7.92 10.38L9.39 10.38L9.39 15.41L9.39 15.41Q9.39 15.90 9.68 16.19L9.68 16.19L9.68 16.19Q9.98 16.48 10.39 16.48L10.39 16.48L10.39 16.48Q10.79 16.48 11.20 16.24L11.20 16.24L11.20 16.24Q11.61 16.00 11.81 15.76L11.81 15.76L11.81 10.38L13.27 10.38L13.27 17.60L11.81 17.60L11.81 16.83L11.81 16.83Q10.92 17.72 9.96 17.72L9.96 17.72L9.96 17.72Q9.10 17.72 8.53 17.27L8.53 17.27L8.53 17.27Q7.92 16.78 7.92 15.79ZM16.15 10.38L16.15 11.15L16.15 11.15Q17.04 10.26 18.13 10.26L18.13 10.26L18.13 10.26Q18.77 10.26 19.26 10.51L19.26 10.51L19.26 10.51Q19.76 10.77 19.99 11.28L19.99 11.28L19.99 11.28Q21.01 10.26 22.01 10.26L22.01 10.26L22.01 10.26Q22.88 10.26 23.51 10.71L23.51 10.71L23.51 10.71Q24.19 11.20 24.19 12.19L24.19 12.19L24.19 17.60L22.72 17.60L22.72 12.57L22.72 12.57Q22.72 12.09 22.37 11.79L22.37 11.79L22.37 11.79Q22.01 11.50 21.59 11.50L21.59 11.50L21.59 11.50Q21.17 11.50 20.77 11.74L20.77 11.74L20.77 11.74Q20.36 11.98 20.17 12.22L20.17 12.22L20.17 17.60L18.70 17.60L18.70 12.57L18.70 12.57Q18.70 12.08 18.41 11.79L18.41 11.79L18.41 11.79Q18.11 11.50 17.69 11.50L17.69 11.50L17.69 11.50Q17.28 11.50 16.81 11.75L16.81 11.75L16.81 11.75Q16.34 12.00 16.15 12.22L16.15 12.22L16.15 17.60L14.69 17.60L14.69 10.38L16.15 10.38ZM27.06 10.38L27.06 11.15L27.06 11.15Q27.95 10.26 29.03 10.26L29.03 10.26L29.03 10.26Q29.67 10.26 30.17 10.51L30.17 10.51L30.17 10.51Q30.66 10.77 30.89 11.28L30.89 11.28L30.89 11.28Q31.91 10.26 32.92 10.26L32.92 10.26L32.92 10.26Q33.78 10.26 34.41 10.71L34.41 10.71L34.41 10.71Q35.09 11.20 35.09 12.19L35.09 12.19L35.09 17.60L33.63 17.60L33.63 12.57L33.63 12.57Q33.63 12.09 33.27 11.79L33.27 11.79L33.27 11.79Q32.92 11.50 32.49 11.50L32.49 11.50L32.49 11.50Q32.07 11.50 31.67 11.74L31.67 11.74L31.67 11.74Q31.27 11.98 31.07 12.22L31.07 12.22L31.07 17.60L29.61 17.60L29.61 12.57L29.61 12.57Q29.61 12.08 29.31 11.79L29.31 11.79L29.31 11.79Q29.01 11.50 28.60 11.50L28.60 11.50L28.60 11.50Q28.18 11.50 27.71 11.75L27.71 11.75L27.71 11.75Q27.24 12.00 27.06 12.22L27.06 12.22L27.06 17.60L25.59 17.60L25.59 10.38L27.06 10.38ZM37.93 17.60L36.47 17.60L36.47 10.38L37.93 10.38L37.93 17.60ZM38.03 9.75L36.37 9.75L36.37 8.09L38.03 8.09L38.03 9.75ZM39.90 11.62L38.83 11.62L38.83 10.38L39.90 10.38L39.90 7.75L41.36 7.75L41.36 10.38L42.88 10.38L42.88 11.62L41.36 11.62L41.36 15.49L41.36 15.49Q41.36 16.07 41.57 16.29L41.57 16.29L41.57 16.29Q41.78 16.50 42.27 16.50L42.27 16.50L42.27 16.50Q42.47 16.50 42.67 16.47L42.67 16.47L42.67 16.47Q42.88 16.45 42.88 16.44L42.88 16.44L42.88 17.47L42.88 17.47Q42.51 17.64 42.30 17.69L42.30 17.69L42.30 17.69Q42.10 17.74 41.81 17.74L41.81 17.74L41.81 17.74Q41.52 17.74 41.38 17.73L41.38 17.73L41.38 17.73Q41.24 17.73 41.04 17.68L41.04 17.68L41.04 17.68Q40.84 17.64 40.69 17.57L40.69 17.57L40.69 17.57Q40.54 17.50 40.39 17.36L40.39 17.36L40.39 17.36Q40.23 17.23 40.13 17.04L40.13 17.04L40.13 17.04Q39.90 16.60 39.90 15.90L39.90 15.90L39.90 11.62ZM46.95 13.70L46.95 13.70L46.95 13.70Q46.84 13.06 46.84 12.40L46.84 12.40L46.84 12.40Q46.84 11.74 46.94 11.11L46.94 11.11L46.94 11.11Q47.04 10.47 47.25 9.87L47.25 9.87L47.25 9.87Q47.45 9.26 47.77 8.75L47.77 8.75L47.77 8.75Q48.10 8.24 48.51 7.86L48.51 7.86L48.51 7.86Q49.40 7.05 50.72 7.05L50.72 7.05L50.72 7.05Q52.40 7.05 53.37 8.72L53.37 8.72L53.37 8.72Q53.84 9.54 54.00 10.40L54.00 10.40L54.00 10.40L52.58 10.79L52.58 10.79Q52.47 10.06 52.32 9.72L52.32 9.72L52.32 9.72Q52.17 9.38 52.02 9.15L52.02 9.15L52.02 9.15Q51.87 8.92 51.69 8.77L51.69 8.77L51.69 8.77Q51.27 8.42 50.73 8.42L50.73 8.42L50.73 8.42Q50.20 8.42 49.81 8.66L49.81 8.66L49.81 8.66Q49.43 8.91 49.18 9.30L49.18 9.30L49.18 9.30Q48.94 9.69 48.77 10.22L48.77 10.22L48.77 10.22Q48.47 11.19 48.47 12.41L48.47 12.41L48.47 12.41Q48.47 15.63 50.00 16.26L50.00 16.26L50.00 16.26Q50.33 16.40 50.70 16.40L50.70 16.40L50.70 16.40Q51.07 16.40 51.36 16.30L51.36 16.30L51.36 16.30Q51.65 16.21 51.85 16.05L51.85 16.05L51.85 16.05Q52.05 15.90 52.20 15.69L52.20 15.69L52.20 15.69Q52.36 15.48 52.45 15.26L52.45 15.26L52.45 15.26Q52.54 15.05 52.60 14.82L52.60 14.82L52.60 14.82Q52.70 14.42 52.70 14.08L52.70 14.08L54.22 14.29L54.22 14.29Q53.92 15.61 53.15 16.57L53.15 16.57L53.15 16.57Q52.18 17.77 50.71 17.77L50.71 17.77L50.71 17.77Q48.90 17.77 47.80 16.06L47.80 16.06L47.80 16.06Q47.18 15.09 46.95 13.70ZM57.14 8.61L54.35 8.61L54.35 7.24L61.57 7.24L61.57 8.61L58.78 8.61L58.78 17.60L57.14 17.60L57.14 8.61ZM64.07 17.60L62.43 17.60L62.43 7.24L68.36 7.24L68.36 8.61L64.07 8.61L64.07 11.48L67.05 11.48L67.05 12.86L64.07 12.86L64.07 17.60Z"></path></g><!----><!----></svg>